<?xml version="1.0" encoding="UTF-8" standalone="no"?>
<svg
   id="svg"
   width="400"
   height="400"
   viewBox="0 0 400 400"
   version="1.1"
   xmlns="http://www.w3.org/2000/svg"
   xmlns:svg="http://www.w3.org/2000/svg">
  <defs
     id="defs1" />
  <g
     id="svgg">
    <path
       id="path0"
       d="m 237.4,27.149 c -12.819,1.033 -23.662,6.064 -32.865,15.251 -18.36,18.328 -26.461,50.268 -21.13,83.311 1.087,6.739 5.907,10.53 10.456,8.225 2.94,-1.489 3.952,-5.149 3.044,-11.003 -2.678,-17.26 -0.304,-35.576 6.419,-49.533 14.437,-29.968 45.552,-36.408 71.435,-14.783 35.661,29.794 42.751,93.569 13.702,123.25 -5.437,5.555 -11.348,15.725 -15.014,25.832 -0.546,1.505 -0.4,1.53 -1.512,-0.266 -13.037,-21.058 -20.06,-45.646 -20.729,-72.566 -0.13,-5.24 -0.211,-5.767 -1.214,-7.913 -3.269,-6.995 -10.747,-7.042 -12.528,-0.078 -0.452,1.769 -0.351,9.822 0.21,16.724 1.153,14.168 3.603,26.014 8.468,40.939 1.281,3.932 1.334,4.141 1.526,6.066 0.11,1.097 0.287,2.625 0.393,3.395 2.154,15.647 -3.453,29.149 -13.128,31.609 -9.526,2.423 -20.626,-6.717 -26.109,-21.499 -0.707,-1.904 -1.208,-3.592 -2.289,-7.71 -6.357,-24.212 -22.018,-42.801 -38.019,-45.127 -14.265,-2.075 -25.927,8.764 -30.029,27.91 l -0.439,2.049 -0.647,-1.049 c -0.625,-1.013 -3.797,-5.747 -4.859,-7.25 l -0.519,-0.733 0.316,-1.808 c 0.642,-3.681 1.181,-8.212 1.619,-13.592 0.296,-3.653 0.342,-17.347 0.069,-21.133 C 131.336,98.256 117.894,63.334 96.638,38.526 90.575,31.451 80.206,29.819 72.737,34.764 c -8.405,5.564 -12.032,17.635 -9.596,31.927 7.09,41.589 25.251,81.031 48.121,104.509 1.464,1.503 3.073,3.159 3.576,3.679 l 0.914,0.946 -0.997,2.988 c -3.623,10.844 -8.527,19.415 -15.107,26.399 -9.285,9.855 -16.495,26.549 -18.97,43.922 -6.799,47.726 16.887,99.67 53.655,117.665 40.022,19.589 78.7,-9.205 83.461,-62.132 1.08,-12.002 -0.092,-29.749 -2.259,-34.215 -3.294,-6.788 -10.599,-6.763 -12.488,0.041 -0.436,1.573 -0.406,3.352 0.116,6.774 4.081,26.771 -3.714,53.373 -19.63,66.99 -24.517,20.978 -60.426,7.425 -79.113,-29.857 -16.946,-33.808 -13.889,-74.746 7.194,-96.333 5.402,-5.532 11.015,-15.124 14.786,-25.267 0.313,-0.843 0.614,-1.583 0.669,-1.644 0.21,-0.234 4.129,6.511 6.456,11.111 9.583,18.943 14.89,40.436 15.225,61.666 0.085,5.372 0.223,6.51 1.035,8.523 3.029,7.512 10.857,7.884 12.845,0.611 0.428,-1.568 0.272,-10.342 -0.306,-17.2 -1.149,-13.616 -3.612,-25.625 -8.053,-39.267 -1.766,-5.421 -1.699,-5.163 -1.931,-7.467 -0.111,-1.1 -0.29,-2.66 -0.399,-3.466 -2.701,-20.075 7.561,-35.301 20.846,-30.926 9.216,3.034 16.699,13.259 20.487,27.992 10.684,41.556 44.686,60.383 61.876,34.261 2.956,-4.491 5.94,-12.303 6.658,-17.427 0.117,-0.834 0.166,-0.812 0.928,0.4 0.984,1.567 3.193,4.865 4.292,6.41 l 0.98,1.377 -0.332,2.023 c -7.442,45.37 6.866,97.864 35.978,132.001 3.961,4.644 11.681,7.3 17.546,6.035 10.117,-2.181 16.492,-12.413 16.455,-26.413 l -0.01,-3.867 -0.632,-3.666 c -6.138,-35.623 -19.387,-68.187 -37.679,-92.607 -3.241,-4.327 -7.627,-9.585 -9.457,-11.336 -0.377,-0.361 -1.788,-1.8 -3.134,-3.196 l -2.448,-2.54 0.902,-2.727 c 3.668,-11.091 8.573,-19.651 15.443,-26.948 4.732,-5.026 9.818,-13.537 13.054,-21.846 C 331.619,126.645 313.001,63.81 273.733,37.797 262.24,30.183 248.764,26.234 237.4,27.149 M 84.2,51.762 c 1.411,0.307 2.824,1.126 4.178,2.422 0.798,0.764 1.304,1.398 4.528,5.683 18.534,24.625 28.918,61.898 26.09,93.655 -0.105,1.179 -0.192,2.254 -0.193,2.387 -0.009,0.732 -6.117,-5.76 -10.013,-10.642 C 92.356,124.676 80.416,96.093 74.981,64.333 73.672,56.689 78.235,50.467 84.2,51.762 M 287.699,250.49 c 16.987,19.4 29.976,47.585 36.027,78.177 1.833,9.27 1.908,10.278 0.998,13.419 -2.159,7.45 -9.751,8.561 -14.496,2.123 -0.382,-0.518 -1.123,-1.492 -1.645,-2.164 -19.229,-24.703 -30.221,-62.114 -27.655,-94.126 0.075,-0.946 0.172,-2.169 0.215,-2.719 0.043,-0.55 0.109,-1.09 0.146,-1.2 0.082,-0.241 3.91,3.636 6.41,6.49"
       stroke="none"
       fill="#000000"
       fill-rule="evenodd" />
  </g>
</svg>
